# xmcd CD database file
#
# Track frame offsets:
#	225
#	14057
#	24270
#	37809
#	49344
#	62744
#	72240
#	87804
#	101783
#	114781
#	124193
#	135351
#	145877
#	164777
#	179739
#	191223
#	202169
#	211907
#
# Disc length: 3044 seconds
#
# Revision: 0
# Processed by: cddbd v1.5.2PL0 Copyright (c) Steve Scherf et al.
# Submitted via: CDex 1.70beta2
#
DISCID=0f0be112
DTITLE=Šediváci - Margareta
DYEAR=1900
DGENRE=Country
TTITLE0=Margareta
TTITLE1=Zvadýlko
TTITLE2=Čtyřicátiny
TTITLE3=Moravský vrabec
TTITLE4=Pošeptám jen slov pár
TTITLE5=Trable
TTITLE6=Vím
TTITLE7=Bocman
TTITLE8=Hádání
TTITLE9=Hej naskoč holka
TTITLE10=To už víš
TTITLE11=Mustang
TTITLE12=Ohio
TTITLE13=Svatba jako řemen
TTITLE14=Zelený prstýnky
TTITLE15=Namlouvání
TTITLE16=Vandrácká kapela
TTITLE17=Patra dobrých kamarádů
EXTD=
EXTT0=
EXTT1=
EXTT2=
EXTT3=
EXTT4=
EXTT5=
EXTT6=
EXTT7=
EXTT8=
EXTT9=
EXTT10=
EXTT11=
EXTT12=
EXTT13=
EXTT14=
EXTT15=
EXTT16=
EXTT17=
PLAYORDER=
